<?xml version="1.0" encoding="UTF-8"?>

<svg viewBox="0 0 99 99" xmlns="http://www.w3.org/2000/svg">

  <defs>
    <style>.icon{fill:#3bd1bb;}
    </style>
  </defs>

  <g id="printing">
    <path d="M77.11,30.72H72.68s0-.08,0-.12V16.14a3.49,3.49,0,0,0-3.48-3.48H30.09a3.49,3.49,0,0,0-3.48,3.48V30.59s0,.08,0,.12H21.89A6.27,6.27,0,0,0,15.63,37V62.84a6.27,6.27,0,0,0,6.26,6.26H26.6V82.77a3.57,3.57,0,0,0,3.57,3.57h39a3.57,3.57,0,0,0,3.57-3.57V69.1h4.42a6.27,6.27,0,0,0,6.26-6.26V37A6.27,6.27,0,0,0,77.11,30.72ZM30,30.59V16.14a.12.12,0,0,1,.12-.12H69.21a.12.12,0,0,1,.12.12V30.59a.12.12,0,0,1-.12.12H30.09A.12.12,0,0,1,30,30.59ZM69.33,82.77a.21.21,0,0,1-.21.21h-39a.21.21,0,0,1-.21-.21V56.1a.21.21,0,0,1,.21-.21h39a.21.21,0,0,1,.21.21V82.77ZM80,62.84a2.9,2.9,0,0,1-2.9,2.9H72.69V56.1a3.57,3.57,0,0,0-3.57-3.57h-39A3.57,3.57,0,0,0,26.6,56.1v9.64H21.89a2.9,2.9,0,0,1-2.9-2.9V37a2.9,2.9,0,0,1,2.9-2.9H77.11A2.9,2.9,0,0,1,80,37Z"/>
    <circle cx="73.02" cy="40.88" r="1.84"/>
    <circle cx="66.3" cy="40.88" r="1.84"/>
    <path d="M61.67,72.73H38a1.68,1.68,0,1,0,0,3.36H61.67a1.68,1.68,0,1,0,0-3.36Z"/>
    <path d="M61.67,62.79H38a1.68,1.68,0,1,0,0,3.36H61.67a1.68,1.68,0,1,0,0-3.36Z"/>
  </g>

  <g id="help">
    <path class="cls-1" d="M49.5,14.77A34.73,34.73,0,1,0,84.23,49.5,34.77,34.77,0,0,0,49.5,14.77Zm0,66.09A31.37,31.37,0,1,1,80.87,49.5,31.4,31.4,0,0,1,49.5,80.87Z"/>
    <circle class="cls-1" cx="49.1" cy="66.3" r="1.84"/>
    <path class="cls-1" d="M49.5,32.58a9,9,0,0,0-9,9,1.68,1.68,0,1,0,3.36,0,5.63,5.63,0,0,1,11.27,0c0,2.52-1.94,4.25-3.57,5.26-3.33,2.07-4,4.88-3.94,6.3v4.13a1.68,1.68,0,0,0,3.36,0v-4.2s0-.11,0-.14-.06-1.73,2.35-3.23c3.32-2.06,5.15-4.95,5.15-8.12A9,9,0,0,0,49.5,32.58Z"/>
  </g>

  <g id="calendar">
    <path class="cls-1" d="M81.43,22.1H74v-4a3.18,3.18,0,0,0-3.17-3.17H66.31a3.18,3.18,0,0,0-3.17,3.17v4h-27v-4A3.18,3.18,0,0,0,33,14.88H28.45a3.18,3.18,0,0,0-3.17,3.17v4H17.57A5.6,5.6,0,0,0,12,27.7V78.52a5.6,5.6,0,0,0,5.59,5.59H81.43A5.6,5.6,0,0,0,87,78.52V27.7A5.6,5.6,0,0,0,81.43,22.1ZM66.49,18.24h4.15v10H66.49v-10Zm-37.85,0h4.15v10H28.64v-10ZM17.57,25.46h7.71v3a3.18,3.18,0,0,0,3.17,3.17H33a3.18,3.18,0,0,0,3.17-3.17v-3h27v3a3.18,3.18,0,0,0,3.17,3.17h4.52A3.18,3.18,0,0,0,74,28.45v-3h7.43a2.24,2.24,0,0,1,2.23,2.23v9.09H15.34V27.7A2.24,2.24,0,0,1,17.57,25.46ZM81.43,80.76H17.57a2.24,2.24,0,0,1-2.23-2.23V40.14H83.66V78.52A2.24,2.24,0,0,1,81.43,80.76Z"/>
    <path class="cls-1" d="M28.47,47.68H23A1.68,1.68,0,0,0,23,51h5.48a1.68,1.68,0,0,0,0-3.36Z"/>
    <path class="cls-1" d="M44.15,47.68H38.67a1.68,1.68,0,0,0,0,3.36h5.48a1.68,1.68,0,0,0,0-3.36Z"/>
    <path class="cls-1" d="M59.83,47.68H54.35a1.68,1.68,0,0,0,0,3.36h5.48a1.68,1.68,0,0,0,0-3.36Z"/>
    <path class="cls-1" d="M75.51,47.68H70A1.68,1.68,0,0,0,70,51h5.48a1.68,1.68,0,1,0,0-3.36Z"/>
    <path class="cls-1" d="M28.47,58.88H23a1.68,1.68,0,0,0,0,3.36h5.48a1.68,1.68,0,0,0,0-3.36Z"/>
    <path class="cls-1" d="M44.15,58.88H38.67a1.68,1.68,0,0,0,0,3.36h5.48a1.68,1.68,0,0,0,0-3.36Z"/>
    <path class="cls-1" d="M59.83,58.88H54.35a1.68,1.68,0,0,0,0,3.36h5.48a1.68,1.68,0,0,0,0-3.36Z"/>
    <path class="cls-1" d="M75.51,58.88H70a1.68,1.68,0,0,0,0,3.36h5.48a1.68,1.68,0,1,0,0-3.36Z"/>
    <path class="cls-1" d="M28.47,70.08H23a1.68,1.68,0,1,0,0,3.36h5.48a1.68,1.68,0,1,0,0-3.36Z"/>
    <path class="cls-1" d="M44.15,70.08H38.67a1.68,1.68,0,1,0,0,3.36h5.48a1.68,1.68,0,1,0,0-3.36Z"/>
    <path class="cls-1" d="M59.83,70.08H54.35a1.68,1.68,0,1,0,0,3.36h5.48a1.68,1.68,0,1,0,0-3.36Z"/>
    <path class="cls-1" d="M75.51,70.08H70a1.68,1.68,0,1,0,0,3.36h5.48a1.68,1.68,0,1,0,0-3.36Z"/>
  </g>

  <g id="bell">
    <path class="cls-1" d="M77.87,70.22a1.73,1.73,0,0,0-.1-.21C72.16,59.88,72,45,72,44.83a1.54,1.54,0,0,0,0-.28,22.53,22.53,0,0,0-12.18-19.7v-4.2A6.7,6.7,0,0,0,53.12,14H46.81a6.7,6.7,0,0,0-6.69,6.69V24.4A22.52,22.52,0,0,0,27,44.83c0,.15-.12,15-5.75,25.19l-.07.13c-.84,1.88-.87,3.47-.11,4.72s2.18,1.94,4.21,2H40.58a9,9,0,0,0,17.83,0H73.83a4.84,4.84,0,0,0,4.12-2C78.71,73.64,78.68,72.07,77.87,70.22ZM43.48,23.15v-2.5a3.34,3.34,0,0,1,3.33-3.33h6.31a3.34,3.34,0,0,1,3.33,3.33v2.79l-.06,0c-.33-.11-.66-.19-1-.28s-.67-.18-1-.26l-.87-.17c-.42-.08-.85-.14-1.28-.19l-.71-.08c-.68-.06-1.37-.1-2.06-.1s-1.34,0-2,.1l-.6.06q-.77.09-1.54.24l-.91.2C44.11,23,43.79,23.06,43.48,23.15Zm6,58.53A5.61,5.61,0,0,1,44,76.93H55A5.61,5.61,0,0,1,49.5,81.69Zm25.58-8.56c-.09.15-.54.39-1.39.44H25.35c-.88,0-1.34-.29-1.43-.44s-.12-.62.28-1.54c6-10.89,6.13-26.09,6.14-26.74A19.17,19.17,0,0,1,42.58,27c.54-.21,1.08-.4,1.63-.55l.29-.08c.51-.14,1-.26,1.53-.35l.48-.07c.46-.07.92-.14,1.38-.17l.65,0c.42,0,.84,0,1.26,0l.65,0c.43,0,.87,0,1.3.1l.46.07c.49.07,1,.15,1.46.26l.27.07c.54.13,1.07.27,1.6.45l.19.07c.54.19,1.07.39,1.59.63A19.17,19.17,0,0,1,68.64,44.84a1.62,1.62,0,0,0,0,.29c0,2.23.5,16.21,6.12,26.42C75.2,72.5,75.17,73,75.08,73.12Z"/>
    <path class="cls-1" d="M43,32.94c-.26.16-6.45,4.13-6.79,13.68,0,0,0,.08,0,.13A60.43,60.43,0,0,1,35,59.51a1.68,1.68,0,1,0,3.29.67,63.22,63.22,0,0,0,1.23-13.49c.3-7.64,5-10.76,5.22-10.9A1.68,1.68,0,0,0,43,32.94Z"/>
    <circle class="cls-1" cx="34.87" cy="66.09" r="1.84"/>
  </g>

  <g id="bell">
    <path class="cls-1" d="M77.87,70.22a1.73,1.73,0,0,0-.1-.21C72.16,59.88,72,45,72,44.83a1.54,1.54,0,0,0,0-.28,22.53,22.53,0,0,0-12.18-19.7v-4.2A6.7,6.7,0,0,0,53.12,14H46.81a6.7,6.7,0,0,0-6.69,6.69V24.4A22.52,22.52,0,0,0,27,44.83c0,.15-.12,15-5.75,25.19l-.07.13c-.84,1.88-.87,3.47-.11,4.72s2.18,1.94,4.21,2H40.58a9,9,0,0,0,17.83,0H73.83a4.84,4.84,0,0,0,4.12-2C78.71,73.64,78.68,72.07,77.87,70.22ZM43.48,23.15v-2.5a3.34,3.34,0,0,1,3.33-3.33h6.31a3.34,3.34,0,0,1,3.33,3.33v2.79l-.06,0c-.33-.11-.66-.19-1-.28s-.67-.18-1-.26l-.87-.17c-.42-.08-.85-.14-1.28-.19l-.71-.08c-.68-.06-1.37-.1-2.06-.1s-1.34,0-2,.1l-.6.06q-.77.09-1.54.24l-.91.2C44.11,23,43.79,23.06,43.48,23.15Zm6,58.53A5.61,5.61,0,0,1,44,76.93H55A5.61,5.61,0,0,1,49.5,81.69Zm25.58-8.56c-.09.15-.54.39-1.39.44H25.35c-.88,0-1.34-.29-1.43-.44s-.12-.62.28-1.54c6-10.89,6.13-26.09,6.14-26.74A19.17,19.17,0,0,1,42.58,27c.54-.21,1.08-.4,1.63-.55l.29-.08c.51-.14,1-.26,1.53-.35l.48-.07c.46-.07.92-.14,1.38-.17l.65,0c.42,0,.84,0,1.26,0l.65,0c.43,0,.87,0,1.3.1l.46.07c.49.07,1,.15,1.46.26l.27.07c.54.13,1.07.27,1.6.45l.19.07c.54.19,1.07.39,1.59.63A19.17,19.17,0,0,1,68.64,44.84a1.62,1.62,0,0,0,0,.29c0,2.23.5,16.21,6.12,26.42C75.2,72.5,75.17,73,75.08,73.12Z"/><path class="cls-1" d="M43,32.94c-.26.16-6.45,4.13-6.79,13.68,0,0,0,.08,0,.13A60.43,60.43,0,0,1,35,59.51a1.68,1.68,0,1,0,3.29.67,63.22,63.22,0,0,0,1.23-13.49c.3-7.64,5-10.76,5.22-10.9A1.68,1.68,0,0,0,43,32.94Z"/>
    <circle class="cls-1" cx="34.87" cy="66.09" r="1.84"/>
  </g>

  <g id="folder">
    <path class="cls-1" d="M80.26,26.19H43.36A11.83,11.83,0,0,0,37.05,24H20.28c-6.81,0-8.09,4.54-8.32,6.5a1.7,1.7,0,0,0,0,.2V67.36A7.7,7.7,0,0,0,19.64,75H79.36a7.7,7.7,0,0,0,7.69-7.69V33A6.8,6.8,0,0,0,80.26,26.19ZM83.69,33v2H57.77c-4.69,0-7.1-1.74-7.94-2.51l-2.89-2.89H80.26A3.43,3.43,0,0,1,83.69,33Zm0,34.37a4.34,4.34,0,0,1-4.33,4.33H19.64a4.34,4.34,0,0,1-4.33-4.33V30.75c.31-2.32,1.94-3.44,5-3.44H37a8.62,8.62,0,0,1,4.7,1.86h0a8.44,8.44,0,0,1,.68.6l5,5,.13.13c1.11,1,4.32,3.37,10.19,3.37H83.69Z"/>
  </g>

  <g id="bulb">
    <path class="cls-1" d="M49.35,25.2A21.63,21.63,0,0,0,30.58,57.62a1.67,1.67,0,0,0,.28.47,21.81,21.81,0,0,0,2.76,3.62c3,4.37,4.66,8.09,4.57,10.48a1.68,1.68,0,0,0,0,.34c0,.14,0,.28,0,.43v7.78a6.2,6.2,0,0,0,6.2,6.2h10a6.2,6.2,0,0,0,6.2-6.2V73a5.1,5.1,0,0,0-.05-.7s0-.05,0-.08c-.1-2.45,1.59-6.27,4.75-10.74a21.8,21.8,0,0,0,2.37-3.12l.2-.24a1.57,1.57,0,0,0,.32-.64A21.63,21.63,0,0,0,49.35,25.2Zm7.91,52.48H41.54V73.94H57.26ZM54.42,83.6h-10A2.83,2.83,0,0,1,41.57,81H57.23A2.83,2.83,0,0,1,54.42,83.6ZM65.09,56.15l-.08.16-.11.16a18.39,18.39,0,0,1-2.13,2.79l-.14.17c-2.21,3.12-4.76,7.4-5.32,11.16H41.44c-.43-3-2.15-6.62-5.14-10.9a1.67,1.67,0,0,0-.16-.2,18.39,18.39,0,0,1-2.46-3.24l0-.06,0,0a18.3,18.3,0,1,1,31.47,0Z"/><path class="cls-1" d="M49.5,19.32a1.68,1.68,0,0,0,1.68-1.68V13.72a1.68,1.68,0,1,0-3.36,0v3.92A1.68,1.68,0,0,0,49.5,19.32Z"/><path class="cls-1" d="M33.33,22.43a1.68,1.68,0,0,0,2.91-1.68l-2-3.4A1.68,1.68,0,0,0,31.37,19Z"/>
    <path class="cls-1" d="M24.84,30.91l-3.39-2a1.68,1.68,0,0,0-1.68,2.91l3.39,2a1.68,1.68,0,0,0,1.68-2.91Z"/>
    <path class="cls-1" d="M20.06,45.4H16.14a1.68,1.68,0,0,0,0,3.36h3.92a1.68,1.68,0,0,0,0-3.36Z"/>
    <path class="cls-1" d="M82.86,45.4H78.94a1.68,1.68,0,0,0,0,3.36h3.92a1.68,1.68,0,1,0,0-3.36Z"/>
    <path class="cls-1" d="M79.84,29.56a1.68,1.68,0,0,0-2.29-.61l-3.39,2a1.68,1.68,0,1,0,1.68,2.91l3.39-2A1.68,1.68,0,0,0,79.84,29.56Z"/>
    <path class="cls-1" d="M63.38,23a1.68,1.68,0,0,0,2.29-.61l2-3.4a1.68,1.68,0,0,0-2.91-1.68l-2,3.4A1.68,1.68,0,0,0,63.38,23Z"/>
  </g>

  <g id="trash">
    <path class="cls-1" d="M72.74,22.24H59.93a10.63,10.63,0,0,0-21,0H26.26a4.48,4.48,0,0,0-4.47,4.47v4.55a4.47,4.47,0,0,0,3.8,4.4V80a5.87,5.87,0,0,0,5.86,5.86H67.54A5.87,5.87,0,0,0,73.41,80V35.66a4.47,4.47,0,0,0,3.8-4.4V26.71A4.48,4.48,0,0,0,72.74,22.24ZM49.41,16.46a7.29,7.29,0,0,1,7.12,5.78H42.28A7.29,7.29,0,0,1,49.41,16.46ZM70,80a2.51,2.51,0,0,1-2.5,2.5H31.45A2.51,2.51,0,0,1,29,80V35.78H70Zm3.8-48.78a1.11,1.11,0,0,1-1.11,1.11H26.26a1.11,1.11,0,0,1-1.11-1.11V26.71a1.11,1.11,0,0,1,1.11-1.11H72.74a1.11,1.11,0,0,1,1.11,1.11Z"/>
    <path class="cls-1" d="M38.13,75.54a1.68,1.68,0,0,0,1.68-1.68V45.16a1.68,1.68,0,1,0-3.36,0v28.7A1.68,1.68,0,0,0,38.13,75.54Z"/><path class="cls-1" d="M49.67,75.54a1.68,1.68,0,0,0,1.68-1.68V45.16a1.68,1.68,0,0,0-3.36,0v28.7A1.68,1.68,0,0,0,49.67,75.54Z"/><path class="cls-1" d="M61.22,75.54a1.68,1.68,0,0,0,1.68-1.68V45.16a1.68,1.68,0,0,0-3.36,0v28.7A1.68,1.68,0,0,0,61.22,75.54Z"/>
  </g>

  <g id="target">
    <path class="cls-1" d="M82.92,21.45c-.06-3.05-1.74-5.05-4.51-5.34h-.15l-18.34-.34H59.7A10.06,10.06,0,0,0,53.11,18l-.11.1L17.16,54a4.79,4.79,0,0,0,0,6.75L38.3,81.84a4.74,4.74,0,0,0,3.38,1.4h0A4.74,4.74,0,0,0,45,81.84L62.63,64.27a4.69,4.69,0,0,0,.53-.64L80.33,46.46a11.47,11.47,0,0,0,2.91-7.7Zm-5,22.71L60.66,61.37a1.62,1.62,0,0,0-.23.28,1.4,1.4,0,0,1-.19.24L42.67,79.47a1.45,1.45,0,0,1-2,0L19.53,58.33a1.42,1.42,0,0,1,0-2L55.31,20.55a6.77,6.77,0,0,1,4.38-1.43l18.42.34c.7.09,1.41.43,1.44,2.06l.32,17.31A8.07,8.07,0,0,1,77.87,44.16Z"/>
    <path class="cls-1" d="M67.77,24.77a6.35,6.35,0,1,0,6.35,6.35A6.35,6.35,0,0,0,67.77,24.77Zm0,9.33a3,3,0,1,1,3-3A3,3,0,0,1,67.77,34.11Z"/>
    <path class="cls-1" d="M53.39,50.65l-14.1,14.1a1.68,1.68,0,1,0,2.38,2.38L55.76,53a1.68,1.68,0,1,0-2.38-2.38Z"/>
    <path class="cls-1" d="M53.92,38.44a1.68,1.68,0,0,0-2.38,0L32.26,57.72a1.68,1.68,0,1,0,2.38,2.38L53.92,40.82A1.68,1.68,0,0,0,53.92,38.44Z"/>
  </g>

  <g id="pin">
    <path class="cls-1" d="M72.25,35.15A23.11,23.11,0,0,0,49.59,16.51a24.49,24.49,0,0,0-4.64.45A23.09,23.09,0,0,0,26.76,44.28a48.6,48.6,0,0,0,4,11.1A137.32,137.32,0,0,0,43,75.8c1.17,1.66,2.38,3.3,3.6,5l0,.06.27.36.09.11a3.24,3.24,0,0,0,2.44,1.21A3.51,3.51,0,0,0,52.17,81c3.6-4.75,6.75-9.31,9.63-14,3.24-5.23,7.28-12.24,9.74-20A23.14,23.14,0,0,0,72.25,35.15ZM68.33,46C66,53.44,62.08,60.21,58.94,65.27c-2.82,4.55-5.91,9-9.4,13.63l-.06.07-.11-.16-.05-.07h0c-1.21-1.64-2.41-3.26-3.55-4.89a134.06,134.06,0,0,1-12-19.92,45.54,45.54,0,0,1-3.74-10.33,19.74,19.74,0,0,1,2.94-15,19.52,19.52,0,0,1,12.59-8.36,21.13,21.13,0,0,1,4-.39A19.86,19.86,0,0,1,68.33,46Z"/><path class="cls-1" d="M49.33,28.69A10.72,10.72,0,1,0,60.05,39.41,10.73,10.73,0,0,0,49.33,28.69Zm0,18.08a7.36,7.36,0,1,1,7.36-7.36A7.37,7.37,0,0,1,49.33,46.77Z"/>
  </g>

  <g id="close">
    <path class="cls-1" d="M74.06,24.95a34.73,34.73,0,1,0,0,49.11A34.5,34.5,0,0,0,74.06,24.95ZM71.68,71.68A31.37,31.37,0,1,1,80.87,49.5,31.16,31.16,0,0,1,71.68,71.68Z"/>
    <path class="cls-1" d="M60,39a1.68,1.68,0,0,0-2.38,0l-8.44,8.44L40.75,39a1.68,1.68,0,0,0-2.38,2.38l8.44,8.44-8.44,8.44a1.68,1.68,0,1,0,2.38,2.38l8.44-8.44,8.44,8.44A1.68,1.68,0,0,0,60,58.25l-8.44-8.44L60,41.38A1.68,1.68,0,0,0,60,39Z"/>
  </g>

  <g id="cloud">
    <path class="cls-1" d="M86.26,55.92A11.85,11.85,0,0,0,74.49,45.15h-.54l-.17-.54c-1.47-4.82-5.29-7.81-10-7.81a11.83,11.83,0,0,0-4.9,1.1l-.59.27-.43-.54a19.78,19.78,0,0,0-15.64-7.74A19.75,19.75,0,0,0,22.71,48c0,.25,0,.53,0,.81,0,0,0,.1,0,.15h-.16c-.26,0-.51,0-.74.06a10,10,0,0,0-6.71,3.6,9.59,9.59,0,0,0-1.44,10.56A9.74,9.74,0,0,0,22.9,69.1q5.51,0,11,0h40.5a12.56,12.56,0,0,0,2.91-.32A12,12,0,0,0,86.26,55.92Zm-9.74,9.6a9.21,9.21,0,0,1-2.12.23H33.91q-5.5,0-11,0a6.38,6.38,0,0,1-6.22-4,6.27,6.27,0,0,1,1-7.06,6.63,6.63,0,0,1,4.53-2.38l.49,0a3.57,3.57,0,0,0,2.6-.91A3.62,3.62,0,0,0,26,48.79c0-.18,0-.35,0-.52a15.89,15.89,0,0,1,5.25-10.73,16.1,16.1,0,0,1,10.93-4.31,16.44,16.44,0,0,1,13,6.45c.85,1.09,1.53,2,2.83,2A5.41,5.41,0,0,0,60.28,41a8.52,8.52,0,0,1,3.51-.8c3.15,0,5.75,2.08,6.77,5.43.73,2.4,1.38,2.9,3.87,2.93a8.46,8.46,0,0,1,8.48,7.8A8.58,8.58,0,0,1,76.52,65.52Z"/>
  </g>

  <g id="wallet">
    <path class="cls-1" d="M86.39,53.16a8.37,8.37,0,0,0-5.46-7.84V34.21a3.53,3.53,0,0,0-3.52-3.52h-4.7V25.53a3.74,3.74,0,0,0-3.92-3.79h-50a6.16,6.16,0,0,0-6,5h0a5.83,5.83,0,0,0,0,2.12v3a1.67,1.67,0,0,0-.08.52V71.11a6.16,6.16,0,0,0,6.15,6.15H77.41a3.53,3.53,0,0,0,3.52-3.52V61A8.37,8.37,0,0,0,86.39,53.16ZM18.76,25.1h50c.55,0,.55.21.55.43v5.16H18.76a2.78,2.78,0,0,1-.53-.05l-.18,0-.32-.1-.2-.09-.25-.14-.2-.14L16.9,30l-.19-.19-.14-.16a2.76,2.76,0,0,1-.18-.25l-.07-.13a2.77,2.77,0,0,1-.16-.34v0a2.81,2.81,0,0,1-.12-.44h0a2.39,2.39,0,0,1,0-1h0s0-.08,0-.12A2.8,2.8,0,0,1,18.76,25.1ZM77.57,73.74a.16.16,0,0,1-.16.16H18.76A2.8,2.8,0,0,1,16,71.11V33.37l.15.07.4.17.24.09.41.13.24.06.46.08.21,0a6.2,6.2,0,0,0,.69,0H77.41a.16.16,0,0,1,.16.16V44.79H69.39A8.36,8.36,0,0,0,61,53.16h0a8.36,8.36,0,0,0,8.37,8.37h8.18ZM78,58.17H69.39a5,5,0,1,1,0-10H78a5,5,0,1,1,0,10Z"/><circle class="cls-1" cx="70.62" cy="53.16" r="1.84"/>
  </g>

  <g id="book-mark">
    <path class="cls-1" d="M74.72,21.95H70v-4a3.88,3.88,0,0,0-4.06-4H56.15v-.2A1.68,1.68,0,0,0,54.47,12H36.84a1.68,1.68,0,0,0-1.68,1.68v.24H26.62a5.73,5.73,0,0,0-5.72,5.46,1.7,1.7,0,0,0,0,.26V81.17s0,0,0,0,0,.05,0,.08A5.73,5.73,0,0,0,26.6,87H70c3.91-.19,8.09-2.65,8.09-9V25.35A3.41,3.41,0,0,0,74.72,21.95Zm-36.2-6.61H52.79V45.58l-6-5.15a1.67,1.67,0,0,0-.51-.3,1.65,1.65,0,0,0-.23,0,1.69,1.69,0,0,0-.33-.06h0a1.69,1.69,0,0,0-.39.06l-.14,0a1.68,1.68,0,0,0-.51.27l-6.1,4.75V15.34ZM24.24,19.85a1.63,1.63,0,0,0,0-.22,2.36,2.36,0,0,1,2.36-2.36h8.55V48.56a1.68,1.68,0,0,0,2.71,1.33l7.73-6,7.77,6.63a1.67,1.67,0,0,0,.47.27l.17,0a1.67,1.67,0,0,0,.36.06l.1,0,.17,0h.12a1.65,1.65,0,0,0,.42-.12,1.68,1.68,0,0,0,1-1.53v-32H66c.73,0,.73.33.73.69V74.14c0,1.15-.42,1.41-1,1.44H26.6a5.78,5.78,0,0,0-1.12.11h0a5.66,5.66,0,0,0-1,.33h0l-.13,0ZM74.76,78.06c0,4.4-2.63,5.48-4.86,5.6H26.6a2.36,2.36,0,0,1-2.36-2.35s0-.06,0-.08a2.37,2.37,0,0,1,.42-1.28l.07-.08a2.35,2.35,0,0,1,.21-.25,2.39,2.39,0,0,1,.22-.18l.12-.1a2.37,2.37,0,0,1,.33-.18l.07,0a2.35,2.35,0,0,1,.38-.12l.06,0a2.36,2.36,0,0,1,.47,0H65.93A4.05,4.05,0,0,0,70,74.65V25.31l4.72,0Z"/>
  </g>

  <g id="power">
    <path class="cls-1" d="M49.5,14.77A34.73,34.73,0,1,0,84.23,49.5,34.77,34.77,0,0,0,49.5,14.77Zm0,66.09A31.37,31.37,0,1,1,80.87,49.5,31.4,31.4,0,0,1,49.5,80.87Z"/>
    <path class="cls-1" d="M58,39.17a1.68,1.68,0,1,0-2,2.68,10.7,10.7,0,1,1-12.93,0,1.68,1.68,0,0,0-2-2.68,14.06,14.06,0,1,0,17,0Z"/>
    <path class="cls-1" d="M49.5,52.05a1.68,1.68,0,0,0,1.68-1.68V34.94a1.68,1.68,0,0,0-3.36,0V50.37A1.68,1.68,0,0,0,49.5,52.05Z"/>
  </g>

  <g id="user">
    <path class="cls-1" d="M85.9,49.5a36.4,36.4,0,1,0-60,27.66,1.68,1.68,0,0,0,.35.31,36.32,36.32,0,0,0,46.37.14,1.68,1.68,0,0,0,.81-.69A36.32,36.32,0,0,0,85.9,49.5Zm-69.44,0a33,33,0,1,1,56.77,23,24.24,24.24,0,0,0-12.3-16.6,14.49,14.49,0,1,0-22.83,0A24.23,24.23,0,0,0,25.86,72.55,32.92,32.92,0,0,1,16.46,49.5ZM38.37,47A11.13,11.13,0,1,1,49.5,58.11,11.14,11.14,0,0,1,38.37,47ZM28.86,75.27a21.22,21.22,0,0,1,11.72-16.9,14.4,14.4,0,0,0,17.89,0A21,21,0,0,1,70.24,75.19a32.95,32.95,0,0,1-41.39.08Z"/>
  </g>

  <g id="like">
    <circle class="cls-1" cx="26.33" cy="50.04" r="1.84"/><path class="cls-1" d="M83.44,49.36a5.8,5.8,0,0,0-1.58-3.51l-2.42-2.53a7.5,7.5,0,0,0-5.1-2.41h-9.9a1.85,1.85,0,0,1,0-.34v-20s0-.1,0-.15a3.06,3.06,0,0,0-3.27-2.88H55a3.71,3.71,0,0,0-3.46,2.81L48.15,32.84,36.73,44.69A5.84,5.84,0,0,0,31,39.58H21.41a5.86,5.86,0,0,0-5.86,5.86v30a5.86,5.86,0,0,0,5.86,5.86H31a5.86,5.86,0,0,0,5.86-5.86v-.24l3,3.11a11.92,11.92,0,0,0,8.46,3.17H69.66a10.09,10.09,0,0,0,6.92-2.85l3.78-4a12.09,12.09,0,0,0,3.09-8V49.51C83.45,49.46,83.45,49.41,83.44,49.36ZM31,77.94H21.41a2.5,2.5,0,0,1-2.5-2.5v-30a2.5,2.5,0,0,1,2.5-2.5H31a2.5,2.5,0,0,1,2.5,2.5v3.35l-.11,22.1a1.68,1.68,0,0,0,.12.63v3.93A2.5,2.5,0,0,1,31,77.94ZM80.09,66.65a8.81,8.81,0,0,1-2.19,5.74l-3.75,3.93a6.72,6.72,0,0,1-4.5,1.81H48.24A8.63,8.63,0,0,1,42.18,76l-5.37-5.63V49.46L50.87,34.86a1.68,1.68,0,0,0,.41-.72L54.8,21.22a1,1,0,0,1,.23-.35h6V40.57c0,2.38,1.42,3.46,2.74,3.68l.27,0H74.25A4.14,4.14,0,0,1,77,45.64l2.42,2.53a2.43,2.43,0,0,1,.66,1.43Z"/>
  </g>

  <g id="unlike">
    <path class="cls-1" d="M77.59,17.7H68a5.86,5.86,0,0,0-5.86,5.86v.24l-3-3.11a11.94,11.94,0,0,0-8.46-3.17H29.34a10.1,10.1,0,0,0-6.92,2.85l-3.78,4a12.09,12.09,0,0,0-3.09,8V49.49c0,.05,0,.1,0,.15a5.81,5.81,0,0,0,1.58,3.51l2.42,2.53a7.51,7.51,0,0,0,5.1,2.41h9.9a1.85,1.85,0,0,1,0,.34v20s0,.1,0,.15a3.06,3.06,0,0,0,3.27,2.88H44a3.71,3.71,0,0,0,3.46-2.81l3.41-12.51L62.26,54.31A5.85,5.85,0,0,0,68,59.42h9.55a5.86,5.86,0,0,0,5.86-5.86v-30A5.86,5.86,0,0,0,77.59,17.7ZM48.13,64.14a1.68,1.68,0,0,0-.41.72L44.2,77.78a1.13,1.13,0,0,1-.21.35h-6V58.43c0-2.38-1.42-3.46-2.74-3.68l-.27,0H24.75A4.14,4.14,0,0,1,22,53.36l-2.41-2.53a2.43,2.43,0,0,1-.66-1.43V32.35a8.81,8.81,0,0,1,2.19-5.74l3.75-3.93a6.72,6.72,0,0,1,4.49-1.81H50.76A8.64,8.64,0,0,1,56.82,23l5.37,5.63V49.54Zm32-10.58a2.5,2.5,0,0,1-2.5,2.5H68a2.5,2.5,0,0,1-2.5-2.5V50.22l.12-22.1a1.68,1.68,0,0,0-.12-.63V23.56a2.5,2.5,0,0,1,2.5-2.5h9.55a2.5,2.5,0,0,1,2.5,2.5Z"/><circle class="cls-1" cx="72.67" cy="48.96" r="1.84"/>
  </g>

  <g id="lock">
    <path class="cls-1" d="M49.5,14.77A34.73,34.73,0,1,0,84.23,49.5,34.77,34.77,0,0,0,49.5,14.77Zm0,66.09A31.37,31.37,0,1,1,80.87,49.5,31.4,31.4,0,0,1,49.5,80.87Z"/>
    <path class="cls-1" d="M58,39.17a1.68,1.68,0,1,0-2,2.68,10.7,10.7,0,1,1-12.93,0,1.68,1.68,0,0,0-2-2.68,14.06,14.06,0,1,0,17,0Z"/>
    <path class="cls-1" d="M49.5,52.05a1.68,1.68,0,0,0,1.68-1.68V34.94a1.68,1.68,0,0,0-3.36,0V50.37A1.68,1.68,0,0,0,49.5,52.05Z"/>
  </g>

  <g id="wifi">
    <path class="cls-1" d="M49.6,56.76A10.73,10.73,0,1,0,60.33,67.49,10.74,10.74,0,0,0,49.6,56.76Zm0,18.1A7.37,7.37,0,1,1,57,67.49,7.38,7.38,0,0,1,49.6,74.86Z"/><path class="cls-1" d="M49.6,44.22A23.38,23.38,0,0,0,28.52,57.61a1.68,1.68,0,1,0,3,1.43,19.92,19.92,0,0,1,35.89-.37,1.68,1.68,0,1,0,3-1.49A23.15,23.15,0,0,0,49.6,44.22Z"/><path class="cls-1" d="M49.6,32.17a35.38,35.38,0,0,0-29,15.1,1.68,1.68,0,0,0,2.75,1.92A32,32,0,0,1,75.69,49a1.68,1.68,0,0,0,2.74-1.94A35.4,35.4,0,0,0,49.6,32.17Z"/><path class="cls-1" d="M85.5,37.61a46.71,46.71,0,0,0-72,.25A1.68,1.68,0,0,0,16.09,40a43.35,43.35,0,0,1,66.82-.23,1.68,1.68,0,0,0,2.58-2.15Z"/>
  </g>

  <g id="minus">
    <path class="cls-1" d="M49.5,14.77A34.73,34.73,0,1,0,84.23,49.5,34.77,34.77,0,0,0,49.5,14.77Zm0,66.09A31.37,31.37,0,1,1,80.87,49.5,31.4,31.4,0,0,1,49.5,80.87Z"/><path class="cls-1" d="M63.26,48.27H36a1.68,1.68,0,1,0,0,3.36H63.26a1.68,1.68,0,1,0,0-3.36Z"/>
  </g>

  <g id="plus">
    <path class="cls-1" d="M49.5,14.77A34.73,34.73,0,1,0,84.23,49.5,34.77,34.77,0,0,0,49.5,14.77Zm0,66.09A31.37,31.37,0,1,1,80.87,49.5,31.4,31.4,0,0,1,49.5,80.87Z"/><path class="cls-1" d="M63.11,48.27H51.18V36.34a1.68,1.68,0,1,0-3.36,0V48.27H35.89a1.68,1.68,0,0,0,0,3.36H47.82V63.56a1.68,1.68,0,1,0,3.36,0V51.63H63.11a1.68,1.68,0,0,0,0-3.36Z"/>
  </g>

  <g id="coins">
    <path class="cls-1" d="M77.4,47.71c0-5.2-7.15-9.28-16.29-9.28a27.45,27.45,0,0,0-6.94.86V32.18a1.67,1.67,0,0,0,0-.25c0-.1,0-.2,0-.3V22.34c0-5.2-7.15-9.28-16.29-9.28S21.6,17.14,21.6,22.34v9.28c0,.1,0,.2,0,.3a1.66,1.66,0,0,0,0,.25v9.28c0,.1,0,.2,0,.3a1.66,1.66,0,0,0,0,.25v9.28c0,.1,0,.2,0,.3a1.66,1.66,0,0,0,0,.25v9.28c0,5.2,7.16,9.27,16.29,9.27a27.51,27.51,0,0,0,6.94-.87v7.12c0,5.2,7.15,9.28,16.29,9.28S77.4,81.86,77.4,76.66V67.38a1.67,1.67,0,0,0,0-.25c0-.1,0-.2,0-.3V57.54a1.67,1.67,0,0,0,0-.25c0-.1,0-.2,0-.3ZM25.87,28.65l.36.22c.4.23.81.45,1.25.65l0,0c.42.2.87.38,1.33.55l.48.17c.33.11.66.22,1,.32l.6.16,1,.24.65.13,1.05.18.66.09c.39,0,.79.09,1.19.12l.58,0c.6,0,1.21.06,1.84.06s1.23,0,1.84-.06l.58,0c.4,0,.8-.07,1.19-.12l.66-.09,1.05-.18.65-.13,1-.24.59-.16c.35-.1.68-.21,1-.33l.47-.16c.47-.18.92-.36,1.35-.56h0c.44-.21.85-.43,1.25-.66l.34-.22c.27-.17.53-.34.78-.51l.14-.09v3.58c0,2.8-5.31,5.92-12.93,5.92S25,34.42,25,31.62V28l.14.09C25.34,28.32,25.6,28.48,25.87,28.65Zm27.69,27.3.59.16,1,.24.65.13,1.05.18.66.09,1.19.12.58,0c.6,0,1.21.06,1.84.06s1.23,0,1.84-.06l.58,0c.4,0,.8-.07,1.19-.12l.66-.09,1.05-.18.65-.13,1-.24.59-.16c.35-.1.68-.21,1-.33l.47-.16c.47-.18.92-.36,1.35-.56h0c.44-.21.85-.43,1.25-.66l.34-.22c.27-.17.53-.34.78-.51l.14-.09V57c0,2.8-5.31,5.92-12.93,5.92a22.45,22.45,0,0,1-8.37-1.48l-.05,0c-2.44-1-4.1-2.45-4.43-3.85l0-.05a2.34,2.34,0,0,1,0-.24s0,0,0,0V53.43l.45.33h0l.07,0,.14.11h0l.43.26h0l.44.24.08,0,.15.1q.56.3,1.18.56h0l.23.07.68.28.47.16C52.88,55.74,53.21,55.85,53.56,55.95Zm-8.73.28a23.68,23.68,0,0,1-6.94,1C30.27,57.21,25,54.09,25,51.29V47.72c3,2.18,7.61,3.57,12.93,3.57a27.56,27.56,0,0,0,6.94-.86ZM74,66.82c0,2.8-5.31,5.92-12.93,5.92-7.39,0-12.59-2.93-12.9-5.66,0,0,0,0,0,0V63.27a14.5,14.5,0,0,0,2.48,1.45l0,0,.42.2a1.66,1.66,0,0,0,.27.09,25.43,25.43,0,0,0,9.7,1.79c5.32,0,10-1.38,12.93-3.57ZM46,44.15a7.19,7.19,0,0,0-.42.67c-.06.11-.11.22-.16.33s-.15.32-.21.48-.11.33-.16.5-.05.13-.07.2a23.45,23.45,0,0,1-7.12,1C30.27,47.37,25,44.26,25,41.46V37.88c3,2.18,7.61,3.57,12.93,3.57s10-1.38,12.93-3.57v2.58A11.7,11.7,0,0,0,46.11,44Zm28,3.56c0,2.8-5.31,5.92-12.93,5.92A22,22,0,0,1,52.36,52h0c-.28-.12-.56-.26-.82-.39h0l-.12-.06-.05,0-.36-.2-.31-.19h0l-.1-.06,0,0c-.2-.14-.4-.27-.58-.42h0l-.05,0,0,0-.27-.23h0L49.33,50h0l0,0v0l-.23-.25-.2-.25h0l-.18-.26-.14-.25h0a2.76,2.76,0,0,1-.31-1v0c0-.07,0-.14,0-.21s0,0,0,0v0a2.38,2.38,0,0,1,.1-.6v0c.44-1.43,2.19-2.86,4.77-3.84l.07,0a22.79,22.79,0,0,1,8-1.33C68.73,41.79,74,44.91,74,47.71ZM37.89,16.43c7.62,0,12.93,3.12,12.93,5.92s-5.31,5.92-12.93,5.92S25,25.14,25,22.34,30.27,16.43,37.89,16.43ZM25,61.13V57.55c3,2.18,7.61,3.57,12.93,3.57a27.5,27.5,0,0,0,6.94-.86v5.79a23.57,23.57,0,0,1-6.94,1C30.27,67,25,63.93,25,61.13ZM74,76.66c0,2.8-5.31,5.92-12.93,5.92s-12.93-3.12-12.93-5.92V73.08c3,2.19,7.6,3.57,12.93,3.57s10-1.38,12.93-3.57Z"/>
  </g>

  <g id="map">
    <path class="cls-1" d="M84.84,16.08a3,3,0,0,0-.72.09l-.21.07-22.36,8.7L39.77,16.46l-.19-.06a7.89,7.89,0,0,0-2-.23h-.21a8.3,8.3,0,0,0-2.81.55,1.64,1.64,0,0,0-.36.1L14.4,24.53a4.22,4.22,0,0,0-2.74,4V80a3.13,3.13,0,0,0,.79,2.2,2.43,2.43,0,0,0,1.76.74,3.27,3.27,0,0,0,1.18-.24l22.06-8.59L58.52,82.3l.53.21a7.84,7.84,0,0,0,2.45.38h.07a8.32,8.32,0,0,0,3-.58l20.53-8,.11,0a3.72,3.72,0,0,0,2.12-3.46V19C87.35,17,86.09,16.08,84.84,16.08ZM35.77,71.14,15,79.22V28.48a.88.88,0,0,1,.6-.82L35.28,20a2.77,2.77,0,0,0,.45-.13h0Zm24.11,8.08L39.13,71.14V19.81l20.75,8.08ZM84,70.8c0,.28-.08.36-.15.41l-20.46,8-.13.05V27.89L84,19.81Z"/><path class="cls-1" d="M68.68,61.05l2.58,1.53-2.32,3.65A1.68,1.68,0,1,0,71.78,68l2.38-3.74,2.67,1.58A1.68,1.68,0,0,0,78.54,63L76,61.46l2.32-3.65A1.68,1.68,0,0,0,75.44,56l-2.38,3.74L70.4,58.17a1.68,1.68,0,0,0-1.71,2.89Z"/>
  </g>

  <g id="drop">
    <path class="cls-1" d="M74.45,57.83a47.81,47.81,0,0,0-4-11.76A240.92,240.92,0,0,0,53.86,16.38l-.77-1.19a4.31,4.31,0,0,0-3.55-2.34c-2,0-3.3,1.85-3.62,2.38l0,0-1.27,2c-2.3,3.66-4.68,7.44-6.92,11.23A148.38,148.38,0,0,0,26.45,51.1a27.86,27.86,0,0,0-2.18,8.7,24.23,24.23,0,0,0,8.55,20,25.22,25.22,0,0,0,16.66,6.32h0A25.13,25.13,0,0,0,71.12,73.9,23,23,0,0,0,74.45,57.83Zm-6.2,14.33A21.84,21.84,0,0,1,35,77.3a21,21,0,0,1-7.41-17.36,24.73,24.73,0,0,1,2-7.65,145.18,145.18,0,0,1,11-22c2.22-3.75,4.58-7.52,6.87-11.15l1.22-1.95.1-.15a2.28,2.28,0,0,1,.74-.78s.29.09.75.81L51,18.18A237.77,237.77,0,0,1,67.38,47.45a45,45,0,0,1,3.75,10.93A19.79,19.79,0,0,1,68.25,72.16Z"/><path class="cls-1" d="M49.5,72.45A11.58,11.58,0,0,1,37.94,60.88a1.68,1.68,0,0,0-3.36,0A14.94,14.94,0,0,0,49.5,75.81a1.68,1.68,0,0,0,0-3.36Z"/>
  </g>

  <g id="list">
    <path class="cls-1" d="M72.78,12H26.23a4.46,4.46,0,0,0-4.46,4.45V82.57A4.46,4.46,0,0,0,26.23,87H72.78a4.46,4.46,0,0,0,4.45-4.45V16.43A4.46,4.46,0,0,0,72.78,12Zm1.09,70.59a1.1,1.1,0,0,1-1.09,1.09H26.23a1.1,1.1,0,0,1-1.1-1.09V16.43a1.1,1.1,0,0,1,1.1-1.09H72.78a1.1,1.1,0,0,1,1.09,1.09Z"/><path class="cls-1" d="M64.43,62.94H45a1.68,1.68,0,0,0,0,3.36H64.43a1.68,1.68,0,0,0,0-3.36Z"/><path class="cls-1" d="M64.43,73H45a1.68,1.68,0,0,0,0,3.36H64.43a1.68,1.68,0,0,0,0-3.36Z"/><path class="cls-1" d="M64.43,53H45a1.68,1.68,0,1,0,0,3.36H64.43a1.68,1.68,0,1,0,0-3.36Z"/><path class="cls-1" d="M64.43,43.06H45a1.68,1.68,0,1,0,0,3.36H64.43a1.68,1.68,0,1,0,0-3.36Z"/><path class="cls-1" d="M45,36.48H64.28a1.68,1.68,0,1,0,0-3.36H45a1.68,1.68,0,0,0,0,3.36Z"/><path class="cls-1" d="M45,26.54H64.28a1.68,1.68,0,1,0,0-3.36H45a1.68,1.68,0,0,0,0,3.36Z"/><path class="cls-1" d="M36.38,21.26l-3,3-.57-.57a1.68,1.68,0,0,0-2.38,2.38l1.76,1.76a1.68,1.68,0,0,0,2.38,0l4.18-4.18a1.68,1.68,0,0,0-2.38-2.38Z"/><path class="cls-1" d="M36.38,31.52l-3,3-.57-.57a1.68,1.68,0,0,0-2.38,2.38l1.76,1.76a1.68,1.68,0,0,0,2.38,0l4.18-4.18a1.68,1.68,0,0,0-2.38-2.38Z"/><path class="cls-1" d="M36.38,41.46l-3,3-.57-.57a1.68,1.68,0,0,0-2.38,2.38L32.21,48a1.68,1.68,0,0,0,2.38,0l4.18-4.18a1.68,1.68,0,0,0-2.38-2.38Z"/><path class="cls-1" d="M36.38,51.4l-3,3-.57-.57a1.68,1.68,0,0,0-2.38,2.38L32.21,58a1.68,1.68,0,0,0,2.38,0l4.18-4.18a1.68,1.68,0,0,0-2.38-2.38Z"/><path class="cls-1" d="M36.38,61.34l-3,3-.57-.57a1.68,1.68,0,1,0-2.38,2.38l1.76,1.76a1.68,1.68,0,0,0,2.38,0l4.18-4.18a1.68,1.68,0,0,0-2.38-2.38Z"/><path class="cls-1" d="M36.38,71.39l-3,3-.57-.57a1.68,1.68,0,1,0-2.38,2.38l1.76,1.76a1.68,1.68,0,0,0,2.38,0l4.18-4.18a1.68,1.68,0,1,0-2.38-2.38Z"/>
  </g>

  <g id="traffic-signal">
    <path class="cls-1" d="M60,12H39a7.11,7.11,0,0,0-7.1,7.1V79.92A7.11,7.11,0,0,0,39,87H60a7.11,7.11,0,0,0,7.1-7.1V19.08A7.11,7.11,0,0,0,60,12Zm3.74,67.94A3.75,3.75,0,0,1,60,83.66H39a3.75,3.75,0,0,1-3.74-3.74V19.08A3.75,3.75,0,0,1,39,15.34H60a3.75,3.75,0,0,1,3.74,3.74Z"/><path class="cls-1" d="M49.5,20.75a8.57,8.57,0,1,0,8.58,8.57A8.58,8.58,0,0,0,49.5,20.75Zm0,13.79a5.22,5.22,0,1,1,5.22-5.21A5.22,5.22,0,0,1,49.5,34.54Z"/><path class="cls-1" d="M49.5,41.21a8.58,8.58,0,1,0,8.58,8.58A8.58,8.58,0,0,0,49.5,41.21ZM49.5,55a5.21,5.21,0,1,1,5.22-5.21A5.22,5.22,0,0,1,49.5,55Z"/><path class="cls-1" d="M49.5,61.66a8.58,8.58,0,1,0,8.58,8.58A8.58,8.58,0,0,0,49.5,61.66Zm0,13.79a5.21,5.21,0,1,1,5.22-5.21A5.22,5.22,0,0,1,49.5,75.45Z"/>
  </g>

  <g id="circle-menu">
    <path class="cls-1" d="M49.5,14.77A34.73,34.73,0,1,0,84.23,49.5,34.77,34.77,0,0,0,49.5,14.77Zm0,66.09A31.37,31.37,0,1,1,80.87,49.5,31.4,31.4,0,0,1,49.5,80.87Z"/><path class="cls-1" d="M63.23,47.82H36.07a1.68,1.68,0,0,0,0,3.36H63.23a1.68,1.68,0,0,0,0-3.36Z"/><path class="cls-1" d="M63.23,36.62H36.07a1.68,1.68,0,0,0,0,3.36H63.23a1.68,1.68,0,0,0,0-3.36Z"/><path class="cls-1" d="M63.23,59H36.07a1.68,1.68,0,0,0,0,3.36H63.23a1.68,1.68,0,0,0,0-3.36Z"/>
  </g>

</svg>
